<mxfile host="app.diagrams.net" modified="2023-08-19T17:48:56.155Z" agent="Mozilla/5.0 (Windows NT 10.0; Win64; x64) AppleWebKit/537.36 (KHTML, like Gecko) Chrome/115.0.0.0 Safari/537.36" etag="-4nwmO2dKQ85UCGwSn-Z" version="21.3.4" type="github">
  <diagram name="Seite-1" id="h4SFkHRIlP7SPAh55jCk">
    <mxGraphModel dx="4223" dy="972" grid="1" gridSize="10" guides="1" tooltips="1" connect="1" arrows="1" fold="1" page="1" pageScale="1" pageWidth="827" pageHeight="1169" math="0" shadow="0">
      <root>
        <mxCell id="0" />
        <mxCell id="1" parent="0" />
        <mxCell id="1oHpsWvgfou1lXLHneRs-94" value="" style="rounded=0;whiteSpace=wrap;html=1;fillColor=#d5e8d4;strokeColor=#82b366;" vertex="1" parent="1">
          <mxGeometry x="1110" y="790" width="1070" height="480" as="geometry" />
        </mxCell>
        <mxCell id="g7tCphA3tAxqwDj9Emwd-1" value="" style="pointerEvents=1;verticalLabelPosition=bottom;shadow=0;dashed=0;align=center;html=1;verticalAlign=top;shape=mxgraph.electrical.waveforms.step_2;" parent="1" vertex="1">
          <mxGeometry x="2440" y="600" width="80" height="30" as="geometry" />
        </mxCell>
        <mxCell id="g7tCphA3tAxqwDj9Emwd-2" value="Terrase" style="text;html=1;strokeColor=none;fillColor=none;align=center;verticalAlign=middle;whiteSpace=wrap;rounded=0;" parent="1" vertex="1">
          <mxGeometry x="2420" y="570" width="60" height="30" as="geometry" />
        </mxCell>
        <mxCell id="g7tCphA3tAxqwDj9Emwd-3" value="16,5 cm" style="text;html=1;strokeColor=none;fillColor=none;align=center;verticalAlign=middle;whiteSpace=wrap;rounded=0;" parent="1" vertex="1">
          <mxGeometry x="2420" y="600" width="60" height="20" as="geometry" />
        </mxCell>
        <mxCell id="g7tCphA3tAxqwDj9Emwd-6" value="" style="pointerEvents=1;verticalLabelPosition=bottom;shadow=0;dashed=0;align=center;html=1;verticalAlign=top;shape=mxgraph.electrical.waveforms.step_2;" parent="1" vertex="1">
          <mxGeometry x="2520" y="660" width="80" height="30" as="geometry" />
        </mxCell>
        <mxCell id="g7tCphA3tAxqwDj9Emwd-7" value="" style="pointerEvents=1;verticalLabelPosition=bottom;shadow=0;dashed=0;align=center;html=1;verticalAlign=top;shape=mxgraph.electrical.waveforms.step_2;" parent="1" vertex="1">
          <mxGeometry x="2561" y="690" width="80" height="30" as="geometry" />
        </mxCell>
        <mxCell id="g7tCphA3tAxqwDj9Emwd-8" value="" style="pointerEvents=1;verticalLabelPosition=bottom;shadow=0;dashed=0;align=center;html=1;verticalAlign=top;shape=mxgraph.electrical.waveforms.step_2;" parent="1" vertex="1">
          <mxGeometry x="2480" y="630" width="80" height="30" as="geometry" />
        </mxCell>
        <mxCell id="g7tCphA3tAxqwDj9Emwd-9" value="27,5 cm" style="text;html=1;strokeColor=none;fillColor=none;align=center;verticalAlign=middle;whiteSpace=wrap;rounded=0;" parent="1" vertex="1">
          <mxGeometry x="2480" y="610" width="60" height="20" as="geometry" />
        </mxCell>
        <mxCell id="g7tCphA3tAxqwDj9Emwd-10" value="16,5 x 100" style="rounded=0;whiteSpace=wrap;html=1;" parent="1" vertex="1">
          <mxGeometry x="120" y="420" width="120" height="30" as="geometry" />
        </mxCell>
        <mxCell id="g7tCphA3tAxqwDj9Emwd-11" value="27,5 x 100" style="shape=parallelogram;perimeter=parallelogramPerimeter;whiteSpace=wrap;html=1;fixedSize=1;rotation=0;direction=west;flipH=1;" parent="1" vertex="1">
          <mxGeometry x="120" y="450" width="140" height="20" as="geometry" />
        </mxCell>
        <mxCell id="g7tCphA3tAxqwDj9Emwd-12" value="16,5 x 100" style="rounded=0;whiteSpace=wrap;html=1;" parent="1" vertex="1">
          <mxGeometry x="140" y="470" width="120" height="30" as="geometry" />
        </mxCell>
        <mxCell id="g7tCphA3tAxqwDj9Emwd-13" value="27,5 x 100" style="shape=parallelogram;perimeter=parallelogramPerimeter;whiteSpace=wrap;html=1;fixedSize=1;rotation=0;direction=west;flipH=1;" parent="1" vertex="1">
          <mxGeometry x="140" y="500" width="140" height="20" as="geometry" />
        </mxCell>
        <mxCell id="g7tCphA3tAxqwDj9Emwd-14" value="16,5 x 100" style="rounded=0;whiteSpace=wrap;html=1;" parent="1" vertex="1">
          <mxGeometry x="160" y="520" width="120" height="30" as="geometry" />
        </mxCell>
        <mxCell id="g7tCphA3tAxqwDj9Emwd-15" value="27,5 x 100" style="shape=parallelogram;perimeter=parallelogramPerimeter;whiteSpace=wrap;html=1;fixedSize=1;rotation=0;direction=west;flipH=1;" parent="1" vertex="1">
          <mxGeometry x="160" y="550" width="140" height="20" as="geometry" />
        </mxCell>
        <mxCell id="g7tCphA3tAxqwDj9Emwd-16" value="10 x 100" style="rounded=0;whiteSpace=wrap;html=1;" parent="1" vertex="1">
          <mxGeometry x="180" y="570" width="120" height="30" as="geometry" />
        </mxCell>
        <mxCell id="g7tCphA3tAxqwDj9Emwd-17" value="" style="endArrow=none;html=1;rounded=0;entryX=0;entryY=0;entryDx=0;entryDy=0;" parent="1" edge="1">
          <mxGeometry width="50" height="50" relative="1" as="geometry">
            <mxPoint x="119" y="530" as="sourcePoint" />
            <mxPoint x="119" y="420" as="targetPoint" />
          </mxGeometry>
        </mxCell>
        <mxCell id="g7tCphA3tAxqwDj9Emwd-20" value="" style="endArrow=none;html=1;rounded=0;entryX=0;entryY=1;entryDx=0;entryDy=0;" parent="1" target="g7tCphA3tAxqwDj9Emwd-16" edge="1">
          <mxGeometry width="50" height="50" relative="1" as="geometry">
            <mxPoint x="120" y="530" as="sourcePoint" />
            <mxPoint x="130" y="430" as="targetPoint" />
          </mxGeometry>
        </mxCell>
        <mxCell id="g7tCphA3tAxqwDj9Emwd-23" value="40 x 100" style="shape=parallelogram;perimeter=parallelogramPerimeter;whiteSpace=wrap;html=1;fixedSize=1;rotation=0;direction=west;flipH=1;" parent="1" vertex="1">
          <mxGeometry x="180" y="600" width="140" height="20" as="geometry" />
        </mxCell>
        <mxCell id="g7tCphA3tAxqwDj9Emwd-26" value="" style="endArrow=none;html=1;rounded=0;" parent="1" edge="1">
          <mxGeometry width="50" height="50" relative="1" as="geometry">
            <mxPoint x="70" y="600" as="sourcePoint" />
            <mxPoint x="140" y="690" as="targetPoint" />
          </mxGeometry>
        </mxCell>
        <mxCell id="g7tCphA3tAxqwDj9Emwd-28" value="" style="endArrow=none;html=1;rounded=0;" parent="1" edge="1">
          <mxGeometry width="50" height="50" relative="1" as="geometry">
            <mxPoint x="140" y="690" as="sourcePoint" />
            <mxPoint x="550" y="690" as="targetPoint" />
          </mxGeometry>
        </mxCell>
        <mxCell id="g7tCphA3tAxqwDj9Emwd-29" value="" style="endArrow=none;html=1;rounded=0;exitX=0;exitY=0;exitDx=0;exitDy=0;" parent="1" source="g7tCphA3tAxqwDj9Emwd-23" edge="1">
          <mxGeometry width="50" height="50" relative="1" as="geometry">
            <mxPoint x="170" y="620" as="sourcePoint" />
            <mxPoint x="490" y="620" as="targetPoint" />
          </mxGeometry>
        </mxCell>
        <mxCell id="g7tCphA3tAxqwDj9Emwd-30" value="" style="endArrow=none;html=1;rounded=0;" parent="1" edge="1">
          <mxGeometry width="50" height="50" relative="1" as="geometry">
            <mxPoint x="490" y="620" as="sourcePoint" />
            <mxPoint x="550" y="690" as="targetPoint" />
          </mxGeometry>
        </mxCell>
        <mxCell id="g7tCphA3tAxqwDj9Emwd-31" value="60 x 280" style="rounded=0;whiteSpace=wrap;html=1;" parent="1" vertex="1">
          <mxGeometry x="230" y="640" width="120" height="30" as="geometry" />
        </mxCell>
        <mxCell id="g7tCphA3tAxqwDj9Emwd-34" value="" style="endArrow=none;html=1;rounded=0;" parent="1" edge="1">
          <mxGeometry width="50" height="50" relative="1" as="geometry">
            <mxPoint x="-610" y="600" as="sourcePoint" />
            <mxPoint x="180" y="600" as="targetPoint" />
          </mxGeometry>
        </mxCell>
        <mxCell id="g7tCphA3tAxqwDj9Emwd-44" value="" style="rounded=0;whiteSpace=wrap;html=1;fillColor=none;" parent="1" vertex="1">
          <mxGeometry x="-200" y="1360" width="160" height="330" as="geometry" />
        </mxCell>
        <mxCell id="g7tCphA3tAxqwDj9Emwd-45" value="" style="rounded=0;whiteSpace=wrap;html=1;fillColor=none;" parent="1" vertex="1">
          <mxGeometry x="-40" y="1300" width="350" height="390" as="geometry" />
        </mxCell>
        <mxCell id="g7tCphA3tAxqwDj9Emwd-47" value="" style="rounded=0;whiteSpace=wrap;html=1;fillColor=#d5e8d4;strokeColor=#82b366;" parent="1" vertex="1">
          <mxGeometry x="-360" y="1360" width="160" height="330" as="geometry" />
        </mxCell>
        <mxCell id="g7tCphA3tAxqwDj9Emwd-48" value="Post" style="rounded=1;whiteSpace=wrap;html=1;rotation=-45;fillColor=#f5f5f5;fontColor=#333333;strokeColor=#666666;" parent="1" vertex="1">
          <mxGeometry x="-275" y="1640" width="60" height="30" as="geometry" />
        </mxCell>
        <mxCell id="g7tCphA3tAxqwDj9Emwd-49" value="Eingang Treppen" style="rounded=0;whiteSpace=wrap;html=1;" parent="1" vertex="1">
          <mxGeometry x="-360" y="1300" width="320" height="60" as="geometry" />
        </mxCell>
        <mxCell id="g7tCphA3tAxqwDj9Emwd-55" value="60" style="endArrow=baseDash;html=1;strokeWidth=3;rounded=0;startArrow=baseDash;startFill=0;endFill=0;" parent="1" edge="1">
          <mxGeometry width="100" relative="1" as="geometry">
            <mxPoint x="-49.81999999999999" y="1305" as="sourcePoint" />
            <mxPoint x="-50" y="1355" as="targetPoint" />
          </mxGeometry>
        </mxCell>
        <mxCell id="g7tCphA3tAxqwDj9Emwd-56" value="350" style="endArrow=baseDash;html=1;strokeWidth=3;rounded=0;startArrow=baseDash;startFill=0;endFill=0;" parent="1" edge="1">
          <mxGeometry width="100" relative="1" as="geometry">
            <mxPoint x="-40" y="1290" as="sourcePoint" />
            <mxPoint x="310" y="1290" as="targetPoint" />
          </mxGeometry>
        </mxCell>
        <mxCell id="g7tCphA3tAxqwDj9Emwd-57" value="510" style="endArrow=baseDash;html=1;strokeWidth=3;rounded=0;startArrow=baseDash;startFill=0;endFill=0;" parent="1" edge="1">
          <mxGeometry width="100" relative="1" as="geometry">
            <mxPoint x="-190" y="1700" as="sourcePoint" />
            <mxPoint x="310" y="1700" as="targetPoint" />
          </mxGeometry>
        </mxCell>
        <mxCell id="g7tCphA3tAxqwDj9Emwd-60" value="160" style="endArrow=baseDash;html=1;strokeWidth=3;rounded=0;startArrow=baseDash;startFill=0;endFill=0;entryX=0.161;entryY=0.239;entryDx=0;entryDy=0;entryPerimeter=0;" parent="1" edge="1">
          <mxGeometry width="100" relative="1" as="geometry">
            <mxPoint x="-61" y="1349.64" as="sourcePoint" />
            <mxPoint x="-170.99999999999983" y="1349.64" as="targetPoint" />
          </mxGeometry>
        </mxCell>
        <mxCell id="g7tCphA3tAxqwDj9Emwd-61" value="52" style="endArrow=baseDash;html=1;strokeWidth=3;rounded=0;startArrow=baseDash;startFill=0;endFill=0;entryX=0.161;entryY=0.239;entryDx=0;entryDy=0;entryPerimeter=0;" parent="1" edge="1">
          <mxGeometry width="100" relative="1" as="geometry">
            <mxPoint x="170" y="609.64" as="sourcePoint" />
            <mxPoint x="100.00000000000017" y="609.58" as="targetPoint" />
          </mxGeometry>
        </mxCell>
        <mxCell id="g7tCphA3tAxqwDj9Emwd-62" value="" style="shape=parallelogram;perimeter=parallelogramPerimeter;whiteSpace=wrap;html=1;fixedSize=1;rotation=0;direction=west;flipH=1;size=270;fillColor=#d5e8d4;strokeColor=none;" parent="1" vertex="1">
          <mxGeometry x="-610" y="600" width="950" height="360" as="geometry" />
        </mxCell>
        <mxCell id="g7tCphA3tAxqwDj9Emwd-63" value="" style="shape=parallelogram;perimeter=parallelogramPerimeter;whiteSpace=wrap;html=1;fixedSize=1;rotation=0;direction=west;flipH=1;size=270;fillColor=#d5e8d4;strokeColor=none;" parent="1" vertex="1">
          <mxGeometry x="-61" y="690" width="881" height="270" as="geometry" />
        </mxCell>
        <mxCell id="1oHpsWvgfou1lXLHneRs-1" value="60 x 840" style="shape=parallelogram;perimeter=parallelogramPerimeter;whiteSpace=wrap;html=1;fixedSize=1;rotation=0;direction=west;flipH=1;size=60;" vertex="1" parent="1">
          <mxGeometry x="-670" y="530" width="850" height="70" as="geometry" />
        </mxCell>
        <mxCell id="1oHpsWvgfou1lXLHneRs-3" value="140 x 600" style="shape=parallelogram;perimeter=parallelogramPerimeter;whiteSpace=wrap;html=1;fixedSize=1;rotation=0;direction=west;flipH=1;size=220;" vertex="1" parent="1">
          <mxGeometry x="-670" y="240" width="420" height="290" as="geometry" />
        </mxCell>
        <mxCell id="1oHpsWvgfou1lXLHneRs-6" value="" style="endArrow=none;html=1;strokeWidth=1;rounded=0;" edge="1" parent="1">
          <mxGeometry width="100" relative="1" as="geometry">
            <mxPoint x="-730" y="430" as="sourcePoint" />
            <mxPoint x="-530" y="430" as="targetPoint" />
          </mxGeometry>
        </mxCell>
        <mxCell id="1oHpsWvgfou1lXLHneRs-7" value="" style="endArrow=none;html=1;strokeWidth=1;rounded=0;" edge="1" parent="1">
          <mxGeometry width="100" relative="1" as="geometry">
            <mxPoint x="-795" y="338.95" as="sourcePoint" />
            <mxPoint x="-595" y="338.95" as="targetPoint" />
          </mxGeometry>
        </mxCell>
        <mxCell id="1oHpsWvgfou1lXLHneRs-8" value="" style="endArrow=none;html=1;strokeWidth=1;rounded=0;" edge="1" parent="1">
          <mxGeometry width="100" relative="1" as="geometry">
            <mxPoint x="-870" y="238.95" as="sourcePoint" />
            <mxPoint x="-670" y="238.95" as="targetPoint" />
          </mxGeometry>
        </mxCell>
        <mxCell id="1oHpsWvgfou1lXLHneRs-11" value="Abfälle Container" style="rounded=0;whiteSpace=wrap;html=1;fillColor=none;" vertex="1" parent="1">
          <mxGeometry x="190" y="1640" width="120" height="50" as="geometry" />
        </mxCell>
        <mxCell id="1oHpsWvgfou1lXLHneRs-13" value="330" style="endArrow=baseDash;html=1;strokeWidth=3;rounded=0;startArrow=baseDash;startFill=0;endFill=0;entryX=0.906;entryY=0.97;entryDx=0;entryDy=0;entryPerimeter=0;" edge="1" parent="1" target="g7tCphA3tAxqwDj9Emwd-47">
          <mxGeometry width="100" relative="1" as="geometry">
            <mxPoint x="-214.82" y="1370" as="sourcePoint" />
            <mxPoint x="-215" y="1420" as="targetPoint" />
          </mxGeometry>
        </mxCell>
        <mxCell id="1oHpsWvgfou1lXLHneRs-21" value="" style="rounded=0;whiteSpace=wrap;html=1;fillColor=#e1d5e7;strokeColor=#9673a6;strokeWidth=1;shadow=0;fillStyle=auto;opacity=50;" vertex="1" parent="1">
          <mxGeometry x="-80" y="1360" width="60" height="60" as="geometry" />
        </mxCell>
        <mxCell id="1oHpsWvgfou1lXLHneRs-28" value="" style="rounded=0;whiteSpace=wrap;html=1;fillColor=#e1d5e7;strokeColor=#9673a6;strokeWidth=1;shadow=0;fillStyle=auto;opacity=50;" vertex="1" parent="1">
          <mxGeometry x="-200" y="1360" width="60" height="60" as="geometry" />
        </mxCell>
        <mxCell id="1oHpsWvgfou1lXLHneRs-29" value="" style="rounded=0;whiteSpace=wrap;html=1;fillColor=#e1d5e7;strokeColor=#9673a6;strokeWidth=1;shadow=0;fillStyle=auto;opacity=50;" vertex="1" parent="1">
          <mxGeometry x="-140" y="1360" width="60" height="60" as="geometry" />
        </mxCell>
        <mxCell id="1oHpsWvgfou1lXLHneRs-30" value="" style="rounded=0;whiteSpace=wrap;html=1;fillColor=#e1d5e7;strokeColor=#9673a6;strokeWidth=1;shadow=0;fillStyle=auto;opacity=50;" vertex="1" parent="1">
          <mxGeometry x="-40" y="1300" width="60" height="60" as="geometry" />
        </mxCell>
        <mxCell id="1oHpsWvgfou1lXLHneRs-31" value="" style="rounded=0;whiteSpace=wrap;html=1;fillColor=#e1d5e7;strokeColor=#9673a6;strokeWidth=1;shadow=0;fillStyle=auto;opacity=50;" vertex="1" parent="1">
          <mxGeometry x="20" y="1300" width="60" height="60" as="geometry" />
        </mxCell>
        <mxCell id="1oHpsWvgfou1lXLHneRs-32" value="" style="rounded=0;whiteSpace=wrap;html=1;fillColor=#e1d5e7;strokeColor=#9673a6;strokeWidth=1;shadow=0;fillStyle=auto;opacity=50;" vertex="1" parent="1">
          <mxGeometry x="80" y="1300" width="60" height="60" as="geometry" />
        </mxCell>
        <mxCell id="1oHpsWvgfou1lXLHneRs-33" value="" style="rounded=0;whiteSpace=wrap;html=1;fillColor=#e1d5e7;strokeColor=#9673a6;strokeWidth=1;shadow=0;fillStyle=auto;opacity=50;" vertex="1" parent="1">
          <mxGeometry x="140" y="1300" width="60" height="60" as="geometry" />
        </mxCell>
        <mxCell id="1oHpsWvgfou1lXLHneRs-34" value="" style="rounded=0;whiteSpace=wrap;html=1;fillColor=#e1d5e7;strokeColor=#9673a6;strokeWidth=1;shadow=0;fillStyle=auto;opacity=50;" vertex="1" parent="1">
          <mxGeometry x="201" y="1300" width="60" height="60" as="geometry" />
        </mxCell>
        <mxCell id="1oHpsWvgfou1lXLHneRs-35" value="" style="rounded=0;whiteSpace=wrap;html=1;fillColor=#e1d5e7;strokeColor=#9673a6;strokeWidth=1;shadow=0;fillStyle=auto;opacity=50;" vertex="1" parent="1">
          <mxGeometry x="261" y="1300" width="60" height="60" as="geometry" />
        </mxCell>
        <mxCell id="1oHpsWvgfou1lXLHneRs-36" value="" style="rounded=0;whiteSpace=wrap;html=1;fillColor=#e1d5e7;strokeColor=#9673a6;strokeWidth=1;shadow=0;fillStyle=auto;opacity=50;" vertex="1" parent="1">
          <mxGeometry x="-20" y="1360" width="60" height="60" as="geometry" />
        </mxCell>
        <mxCell id="1oHpsWvgfou1lXLHneRs-37" value="" style="rounded=0;whiteSpace=wrap;html=1;fillColor=#e1d5e7;strokeColor=#9673a6;strokeWidth=1;shadow=0;fillStyle=auto;opacity=50;" vertex="1" parent="1">
          <mxGeometry x="40" y="1360" width="60" height="60" as="geometry" />
        </mxCell>
        <mxCell id="1oHpsWvgfou1lXLHneRs-38" value="" style="rounded=0;whiteSpace=wrap;html=1;fillColor=#e1d5e7;strokeColor=#9673a6;strokeWidth=1;shadow=0;fillStyle=auto;opacity=50;" vertex="1" parent="1">
          <mxGeometry x="100" y="1360" width="60" height="60" as="geometry" />
        </mxCell>
        <mxCell id="1oHpsWvgfou1lXLHneRs-39" value="" style="rounded=0;whiteSpace=wrap;html=1;fillColor=#e1d5e7;strokeColor=#9673a6;strokeWidth=1;shadow=0;fillStyle=auto;opacity=50;" vertex="1" parent="1">
          <mxGeometry x="160" y="1360" width="60" height="60" as="geometry" />
        </mxCell>
        <mxCell id="1oHpsWvgfou1lXLHneRs-40" value="" style="rounded=0;whiteSpace=wrap;html=1;fillColor=#e1d5e7;strokeColor=#9673a6;strokeWidth=1;shadow=0;fillStyle=auto;opacity=50;" vertex="1" parent="1">
          <mxGeometry x="220" y="1360" width="60" height="60" as="geometry" />
        </mxCell>
        <mxCell id="1oHpsWvgfou1lXLHneRs-41" value="" style="rounded=0;whiteSpace=wrap;html=1;fillColor=#e1d5e7;strokeColor=#9673a6;strokeWidth=1;shadow=0;fillStyle=auto;opacity=50;" vertex="1" parent="1">
          <mxGeometry x="281" y="1360" width="60" height="60" as="geometry" />
        </mxCell>
        <mxCell id="1oHpsWvgfou1lXLHneRs-42" value="" style="rounded=0;whiteSpace=wrap;html=1;fillColor=#e1d5e7;strokeColor=#9673a6;strokeWidth=1;shadow=0;fillStyle=auto;opacity=50;" vertex="1" parent="1">
          <mxGeometry x="-80" y="1420" width="60" height="60" as="geometry" />
        </mxCell>
        <mxCell id="1oHpsWvgfou1lXLHneRs-43" value="" style="rounded=0;whiteSpace=wrap;html=1;fillColor=#e1d5e7;strokeColor=#9673a6;strokeWidth=1;shadow=0;fillStyle=auto;opacity=50;" vertex="1" parent="1">
          <mxGeometry x="-140" y="1420" width="60" height="60" as="geometry" />
        </mxCell>
        <mxCell id="1oHpsWvgfou1lXLHneRs-44" value="" style="rounded=0;whiteSpace=wrap;html=1;fillColor=#e1d5e7;strokeColor=#9673a6;strokeWidth=1;shadow=0;fillStyle=auto;opacity=50;" vertex="1" parent="1">
          <mxGeometry x="-20" y="1420" width="60" height="60" as="geometry" />
        </mxCell>
        <mxCell id="1oHpsWvgfou1lXLHneRs-45" value="" style="rounded=0;whiteSpace=wrap;html=1;fillColor=#e1d5e7;strokeColor=#9673a6;strokeWidth=1;shadow=0;fillStyle=auto;opacity=50;" vertex="1" parent="1">
          <mxGeometry x="40" y="1420" width="60" height="60" as="geometry" />
        </mxCell>
        <mxCell id="1oHpsWvgfou1lXLHneRs-46" value="" style="rounded=0;whiteSpace=wrap;html=1;fillColor=#e1d5e7;strokeColor=#9673a6;strokeWidth=1;shadow=0;fillStyle=auto;opacity=50;" vertex="1" parent="1">
          <mxGeometry x="100" y="1420" width="60" height="60" as="geometry" />
        </mxCell>
        <mxCell id="1oHpsWvgfou1lXLHneRs-47" value="" style="rounded=0;whiteSpace=wrap;html=1;fillColor=#e1d5e7;strokeColor=#9673a6;strokeWidth=1;shadow=0;fillStyle=auto;opacity=50;" vertex="1" parent="1">
          <mxGeometry x="160" y="1420" width="60" height="60" as="geometry" />
        </mxCell>
        <mxCell id="1oHpsWvgfou1lXLHneRs-48" value="" style="rounded=0;whiteSpace=wrap;html=1;fillColor=#e1d5e7;strokeColor=#9673a6;strokeWidth=1;shadow=0;fillStyle=auto;opacity=50;" vertex="1" parent="1">
          <mxGeometry x="220" y="1420" width="60" height="60" as="geometry" />
        </mxCell>
        <mxCell id="1oHpsWvgfou1lXLHneRs-49" value="" style="rounded=0;whiteSpace=wrap;html=1;fillColor=#e1d5e7;strokeColor=#9673a6;strokeWidth=1;shadow=0;fillStyle=auto;opacity=50;" vertex="1" parent="1">
          <mxGeometry x="281" y="1420" width="60" height="60" as="geometry" />
        </mxCell>
        <mxCell id="1oHpsWvgfou1lXLHneRs-50" value="" style="rounded=0;whiteSpace=wrap;html=1;fillColor=#e1d5e7;strokeColor=#9673a6;strokeWidth=1;shadow=0;fillStyle=auto;opacity=50;" vertex="1" parent="1">
          <mxGeometry x="-200" y="1420" width="60" height="60" as="geometry" />
        </mxCell>
        <mxCell id="1oHpsWvgfou1lXLHneRs-51" value="" style="rounded=0;whiteSpace=wrap;html=1;fillColor=#e1d5e7;strokeColor=#9673a6;strokeWidth=1;shadow=0;fillStyle=auto;opacity=50;" vertex="1" parent="1">
          <mxGeometry x="-80" y="1480" width="60" height="60" as="geometry" />
        </mxCell>
        <mxCell id="1oHpsWvgfou1lXLHneRs-52" value="" style="rounded=0;whiteSpace=wrap;html=1;fillColor=#e1d5e7;strokeColor=#9673a6;strokeWidth=1;shadow=0;fillStyle=auto;opacity=50;" vertex="1" parent="1">
          <mxGeometry x="-140" y="1480" width="60" height="60" as="geometry" />
        </mxCell>
        <mxCell id="1oHpsWvgfou1lXLHneRs-53" value="" style="rounded=0;whiteSpace=wrap;html=1;fillColor=#e1d5e7;strokeColor=#9673a6;strokeWidth=1;shadow=0;fillStyle=auto;opacity=50;" vertex="1" parent="1">
          <mxGeometry x="-20" y="1480" width="60" height="60" as="geometry" />
        </mxCell>
        <mxCell id="1oHpsWvgfou1lXLHneRs-54" value="" style="rounded=0;whiteSpace=wrap;html=1;fillColor=#e1d5e7;strokeColor=#9673a6;strokeWidth=1;shadow=0;fillStyle=auto;opacity=50;" vertex="1" parent="1">
          <mxGeometry x="40" y="1480" width="60" height="60" as="geometry" />
        </mxCell>
        <mxCell id="1oHpsWvgfou1lXLHneRs-55" value="" style="rounded=0;whiteSpace=wrap;html=1;fillColor=#e1d5e7;strokeColor=#9673a6;strokeWidth=1;shadow=0;fillStyle=auto;opacity=50;" vertex="1" parent="1">
          <mxGeometry x="100" y="1480" width="60" height="60" as="geometry" />
        </mxCell>
        <mxCell id="1oHpsWvgfou1lXLHneRs-56" value="" style="rounded=0;whiteSpace=wrap;html=1;fillColor=#e1d5e7;strokeColor=#9673a6;strokeWidth=1;shadow=0;fillStyle=auto;opacity=50;" vertex="1" parent="1">
          <mxGeometry x="160" y="1480" width="60" height="60" as="geometry" />
        </mxCell>
        <mxCell id="1oHpsWvgfou1lXLHneRs-57" value="" style="rounded=0;whiteSpace=wrap;html=1;fillColor=#e1d5e7;strokeColor=#9673a6;strokeWidth=1;shadow=0;fillStyle=auto;opacity=50;" vertex="1" parent="1">
          <mxGeometry x="220" y="1480" width="60" height="60" as="geometry" />
        </mxCell>
        <mxCell id="1oHpsWvgfou1lXLHneRs-58" value="" style="rounded=0;whiteSpace=wrap;html=1;fillColor=#e1d5e7;strokeColor=#9673a6;strokeWidth=1;shadow=0;fillStyle=auto;opacity=50;" vertex="1" parent="1">
          <mxGeometry x="281" y="1480" width="60" height="60" as="geometry" />
        </mxCell>
        <mxCell id="1oHpsWvgfou1lXLHneRs-59" value="" style="rounded=0;whiteSpace=wrap;html=1;fillColor=#e1d5e7;strokeColor=#9673a6;strokeWidth=1;shadow=0;fillStyle=auto;opacity=50;" vertex="1" parent="1">
          <mxGeometry x="-200" y="1480" width="60" height="60" as="geometry" />
        </mxCell>
        <mxCell id="1oHpsWvgfou1lXLHneRs-60" value="" style="rounded=0;whiteSpace=wrap;html=1;fillColor=#e1d5e7;strokeColor=#9673a6;strokeWidth=1;shadow=0;fillStyle=auto;opacity=50;" vertex="1" parent="1">
          <mxGeometry x="-80" y="1540" width="60" height="60" as="geometry" />
        </mxCell>
        <mxCell id="1oHpsWvgfou1lXLHneRs-61" value="" style="rounded=0;whiteSpace=wrap;html=1;fillColor=#e1d5e7;strokeColor=#9673a6;strokeWidth=1;shadow=0;fillStyle=auto;opacity=50;" vertex="1" parent="1">
          <mxGeometry x="-140" y="1540" width="60" height="60" as="geometry" />
        </mxCell>
        <mxCell id="1oHpsWvgfou1lXLHneRs-62" value="" style="rounded=0;whiteSpace=wrap;html=1;fillColor=#e1d5e7;strokeColor=#9673a6;strokeWidth=1;shadow=0;fillStyle=auto;opacity=50;" vertex="1" parent="1">
          <mxGeometry x="-20" y="1540" width="60" height="60" as="geometry" />
        </mxCell>
        <mxCell id="1oHpsWvgfou1lXLHneRs-63" value="" style="rounded=0;whiteSpace=wrap;html=1;fillColor=#e1d5e7;strokeColor=#9673a6;strokeWidth=1;shadow=0;fillStyle=auto;opacity=50;" vertex="1" parent="1">
          <mxGeometry x="40" y="1540" width="60" height="60" as="geometry" />
        </mxCell>
        <mxCell id="1oHpsWvgfou1lXLHneRs-64" value="" style="rounded=0;whiteSpace=wrap;html=1;fillColor=#e1d5e7;strokeColor=#9673a6;strokeWidth=1;shadow=0;fillStyle=auto;opacity=50;" vertex="1" parent="1">
          <mxGeometry x="100" y="1540" width="60" height="60" as="geometry" />
        </mxCell>
        <mxCell id="1oHpsWvgfou1lXLHneRs-65" value="" style="rounded=0;whiteSpace=wrap;html=1;fillColor=#e1d5e7;strokeColor=#9673a6;strokeWidth=1;shadow=0;fillStyle=auto;opacity=50;" vertex="1" parent="1">
          <mxGeometry x="160" y="1540" width="60" height="60" as="geometry" />
        </mxCell>
        <mxCell id="1oHpsWvgfou1lXLHneRs-66" value="" style="rounded=0;whiteSpace=wrap;html=1;fillColor=#e1d5e7;strokeColor=#9673a6;strokeWidth=1;shadow=0;fillStyle=auto;opacity=50;" vertex="1" parent="1">
          <mxGeometry x="220" y="1540" width="60" height="60" as="geometry" />
        </mxCell>
        <mxCell id="1oHpsWvgfou1lXLHneRs-67" value="" style="rounded=0;whiteSpace=wrap;html=1;fillColor=#e1d5e7;strokeColor=#9673a6;strokeWidth=1;shadow=0;fillStyle=auto;opacity=50;" vertex="1" parent="1">
          <mxGeometry x="281" y="1540" width="60" height="60" as="geometry" />
        </mxCell>
        <mxCell id="1oHpsWvgfou1lXLHneRs-68" value="" style="rounded=0;whiteSpace=wrap;html=1;fillColor=#e1d5e7;strokeColor=#9673a6;strokeWidth=1;shadow=0;fillStyle=auto;opacity=50;" vertex="1" parent="1">
          <mxGeometry x="-200" y="1540" width="60" height="60" as="geometry" />
        </mxCell>
        <mxCell id="1oHpsWvgfou1lXLHneRs-69" value="" style="rounded=0;whiteSpace=wrap;html=1;fillColor=#e1d5e7;strokeColor=#9673a6;strokeWidth=1;shadow=0;fillStyle=auto;opacity=50;" vertex="1" parent="1">
          <mxGeometry x="-80" y="1600" width="60" height="60" as="geometry" />
        </mxCell>
        <mxCell id="1oHpsWvgfou1lXLHneRs-70" value="" style="rounded=0;whiteSpace=wrap;html=1;fillColor=#e1d5e7;strokeColor=#9673a6;strokeWidth=1;shadow=0;fillStyle=auto;opacity=50;" vertex="1" parent="1">
          <mxGeometry x="-140" y="1600" width="60" height="60" as="geometry" />
        </mxCell>
        <mxCell id="1oHpsWvgfou1lXLHneRs-71" value="" style="rounded=0;whiteSpace=wrap;html=1;fillColor=#e1d5e7;strokeColor=#9673a6;strokeWidth=1;shadow=0;fillStyle=auto;opacity=50;" vertex="1" parent="1">
          <mxGeometry x="-20" y="1600" width="60" height="60" as="geometry" />
        </mxCell>
        <mxCell id="1oHpsWvgfou1lXLHneRs-72" value="" style="rounded=0;whiteSpace=wrap;html=1;fillColor=#e1d5e7;strokeColor=#9673a6;strokeWidth=1;shadow=0;fillStyle=auto;opacity=50;" vertex="1" parent="1">
          <mxGeometry x="40" y="1600" width="60" height="60" as="geometry" />
        </mxCell>
        <mxCell id="1oHpsWvgfou1lXLHneRs-73" value="" style="rounded=0;whiteSpace=wrap;html=1;fillColor=#e1d5e7;strokeColor=#9673a6;strokeWidth=1;shadow=0;fillStyle=auto;opacity=50;" vertex="1" parent="1">
          <mxGeometry x="100" y="1600" width="60" height="60" as="geometry" />
        </mxCell>
        <mxCell id="1oHpsWvgfou1lXLHneRs-74" value="" style="rounded=0;whiteSpace=wrap;html=1;fillColor=#e1d5e7;strokeColor=#9673a6;strokeWidth=1;shadow=0;fillStyle=auto;opacity=50;" vertex="1" parent="1">
          <mxGeometry x="160" y="1600" width="60" height="60" as="geometry" />
        </mxCell>
        <mxCell id="1oHpsWvgfou1lXLHneRs-75" value="" style="rounded=0;whiteSpace=wrap;html=1;fillColor=#e1d5e7;strokeColor=#9673a6;strokeWidth=1;shadow=0;fillStyle=auto;opacity=50;" vertex="1" parent="1">
          <mxGeometry x="220" y="1600" width="60" height="60" as="geometry" />
        </mxCell>
        <mxCell id="1oHpsWvgfou1lXLHneRs-76" value="" style="rounded=0;whiteSpace=wrap;html=1;fillColor=#e1d5e7;strokeColor=#9673a6;strokeWidth=1;shadow=0;fillStyle=auto;opacity=50;" vertex="1" parent="1">
          <mxGeometry x="281" y="1600" width="60" height="60" as="geometry" />
        </mxCell>
        <mxCell id="1oHpsWvgfou1lXLHneRs-77" value="" style="rounded=0;whiteSpace=wrap;html=1;fillColor=#e1d5e7;strokeColor=#9673a6;strokeWidth=1;shadow=0;fillStyle=auto;opacity=50;" vertex="1" parent="1">
          <mxGeometry x="-200" y="1600" width="60" height="60" as="geometry" />
        </mxCell>
        <mxCell id="1oHpsWvgfou1lXLHneRs-78" value="" style="rounded=0;whiteSpace=wrap;html=1;fillColor=#e1d5e7;strokeColor=#9673a6;strokeWidth=1;shadow=0;fillStyle=auto;opacity=50;" vertex="1" parent="1">
          <mxGeometry x="-80" y="1660" width="60" height="60" as="geometry" />
        </mxCell>
        <mxCell id="1oHpsWvgfou1lXLHneRs-79" value="" style="rounded=0;whiteSpace=wrap;html=1;fillColor=#e1d5e7;strokeColor=#9673a6;strokeWidth=1;shadow=0;fillStyle=auto;opacity=50;" vertex="1" parent="1">
          <mxGeometry x="-140" y="1660" width="60" height="60" as="geometry" />
        </mxCell>
        <mxCell id="1oHpsWvgfou1lXLHneRs-80" value="" style="rounded=0;whiteSpace=wrap;html=1;fillColor=#e1d5e7;strokeColor=#9673a6;strokeWidth=1;shadow=0;fillStyle=auto;opacity=50;" vertex="1" parent="1">
          <mxGeometry x="-20" y="1660" width="60" height="60" as="geometry" />
        </mxCell>
        <mxCell id="1oHpsWvgfou1lXLHneRs-81" value="" style="rounded=0;whiteSpace=wrap;html=1;fillColor=#e1d5e7;strokeColor=#9673a6;strokeWidth=1;shadow=0;fillStyle=auto;opacity=50;" vertex="1" parent="1">
          <mxGeometry x="40" y="1660" width="60" height="60" as="geometry" />
        </mxCell>
        <mxCell id="1oHpsWvgfou1lXLHneRs-82" value="" style="rounded=0;whiteSpace=wrap;html=1;fillColor=#e1d5e7;strokeColor=#9673a6;strokeWidth=1;shadow=0;fillStyle=auto;opacity=50;" vertex="1" parent="1">
          <mxGeometry x="100" y="1660" width="60" height="60" as="geometry" />
        </mxCell>
        <mxCell id="1oHpsWvgfou1lXLHneRs-83" value="" style="rounded=0;whiteSpace=wrap;html=1;fillColor=#e1d5e7;strokeColor=#9673a6;strokeWidth=1;shadow=0;fillStyle=auto;opacity=50;" vertex="1" parent="1">
          <mxGeometry x="160" y="1660" width="60" height="60" as="geometry" />
        </mxCell>
        <mxCell id="1oHpsWvgfou1lXLHneRs-84" value="" style="rounded=0;whiteSpace=wrap;html=1;fillColor=#e1d5e7;strokeColor=#9673a6;strokeWidth=1;shadow=0;fillStyle=auto;opacity=50;" vertex="1" parent="1">
          <mxGeometry x="220" y="1660" width="60" height="60" as="geometry" />
        </mxCell>
        <mxCell id="1oHpsWvgfou1lXLHneRs-85" value="" style="rounded=0;whiteSpace=wrap;html=1;fillColor=#e1d5e7;strokeColor=#9673a6;strokeWidth=1;shadow=0;fillStyle=auto;opacity=50;" vertex="1" parent="1">
          <mxGeometry x="281" y="1660" width="60" height="60" as="geometry" />
        </mxCell>
        <mxCell id="1oHpsWvgfou1lXLHneRs-86" value="" style="rounded=0;whiteSpace=wrap;html=1;fillColor=#e1d5e7;strokeColor=#9673a6;strokeWidth=1;shadow=0;fillStyle=auto;opacity=50;" vertex="1" parent="1">
          <mxGeometry x="-200" y="1660" width="60" height="60" as="geometry" />
        </mxCell>
        <mxCell id="1oHpsWvgfou1lXLHneRs-89" value="140 x 600" style="rounded=0;whiteSpace=wrap;html=1;" vertex="1" parent="1">
          <mxGeometry x="1241" y="130" width="140" height="600" as="geometry" />
        </mxCell>
        <mxCell id="1oHpsWvgfou1lXLHneRs-91" value="52 x ??" style="rounded=0;whiteSpace=wrap;html=1;" vertex="1" parent="1">
          <mxGeometry x="1898" y="790" width="52" height="20" as="geometry" />
        </mxCell>
        <mxCell id="1oHpsWvgfou1lXLHneRs-92" value="27,5 x 100" style="rounded=0;whiteSpace=wrap;html=1;" vertex="1" parent="1">
          <mxGeometry x="1950" y="740" width="100" height="27" as="geometry" />
        </mxCell>
        <mxCell id="1oHpsWvgfou1lXLHneRs-93" value="40 x 100" style="rounded=0;whiteSpace=wrap;html=1;" vertex="1" parent="1">
          <mxGeometry x="1950" y="767" width="100" height="40" as="geometry" />
        </mxCell>
        <mxCell id="1oHpsWvgfou1lXLHneRs-88" value="60 x 840" style="rounded=0;whiteSpace=wrap;html=1;" vertex="1" parent="1">
          <mxGeometry x="1110" y="730" width="840" height="60" as="geometry" />
        </mxCell>
        <mxCell id="1oHpsWvgfou1lXLHneRs-90" value="60 x 280" style="rounded=0;whiteSpace=wrap;html=1;" vertex="1" parent="1">
          <mxGeometry x="1898" y="807" width="282" height="60" as="geometry" />
        </mxCell>
        <mxCell id="1oHpsWvgfou1lXLHneRs-95" value="Keller treppen" style="rounded=0;whiteSpace=wrap;html=1;" vertex="1" parent="1">
          <mxGeometry x="2050" y="780" width="130" height="27" as="geometry" />
        </mxCell>
        <mxCell id="1oHpsWvgfou1lXLHneRs-99" value="" style="rounded=0;whiteSpace=wrap;html=1;" vertex="1" parent="1">
          <mxGeometry x="2050" y="753" width="130" height="27" as="geometry" />
        </mxCell>
        <mxCell id="1oHpsWvgfou1lXLHneRs-100" value="" style="rounded=0;whiteSpace=wrap;html=1;" vertex="1" parent="1">
          <mxGeometry x="2050" y="726" width="130" height="27" as="geometry" />
        </mxCell>
        <mxCell id="1oHpsWvgfou1lXLHneRs-101" value="" style="rounded=0;whiteSpace=wrap;html=1;" vertex="1" parent="1">
          <mxGeometry x="2050" y="699" width="130" height="27" as="geometry" />
        </mxCell>
        <mxCell id="1oHpsWvgfou1lXLHneRs-102" value="" style="rounded=0;whiteSpace=wrap;html=1;fillColor=#e1d5e7;strokeColor=#9673a6;strokeWidth=1;shadow=0;fillStyle=auto;opacity=50;" vertex="1" parent="1">
          <mxGeometry x="1958" y="807" width="60" height="60" as="geometry" />
        </mxCell>
        <mxCell id="1oHpsWvgfou1lXLHneRs-103" value="" style="rounded=0;whiteSpace=wrap;html=1;fillColor=#e1d5e7;strokeColor=#9673a6;strokeWidth=1;shadow=0;fillStyle=auto;opacity=50;" vertex="1" parent="1">
          <mxGeometry x="1898" y="807" width="60" height="60" as="geometry" />
        </mxCell>
        <mxCell id="1oHpsWvgfou1lXLHneRs-104" value="" style="rounded=0;whiteSpace=wrap;html=1;fillColor=#e1d5e7;strokeColor=#9673a6;strokeWidth=1;shadow=0;fillStyle=auto;opacity=50;" vertex="1" parent="1">
          <mxGeometry x="2018" y="807" width="60" height="60" as="geometry" />
        </mxCell>
        <mxCell id="1oHpsWvgfou1lXLHneRs-105" value="" style="rounded=0;whiteSpace=wrap;html=1;fillColor=#e1d5e7;strokeColor=#9673a6;strokeWidth=1;shadow=0;fillStyle=auto;opacity=50;" vertex="1" parent="1">
          <mxGeometry x="2078" y="807" width="60" height="60" as="geometry" />
        </mxCell>
        <mxCell id="1oHpsWvgfou1lXLHneRs-106" value="" style="rounded=0;whiteSpace=wrap;html=1;fillColor=#e1d5e7;strokeColor=#9673a6;strokeWidth=1;shadow=0;fillStyle=auto;opacity=50;" vertex="1" parent="1">
          <mxGeometry x="2138" y="807" width="60" height="60" as="geometry" />
        </mxCell>
        <mxCell id="1oHpsWvgfou1lXLHneRs-107" value="" style="rounded=0;whiteSpace=wrap;html=1;fillColor=#e1d5e7;strokeColor=#9673a6;strokeWidth=1;shadow=0;fillStyle=auto;opacity=50;" vertex="1" parent="1">
          <mxGeometry x="1890" y="730" width="60" height="60" as="geometry" />
        </mxCell>
        <mxCell id="1oHpsWvgfou1lXLHneRs-108" value="" style="rounded=0;whiteSpace=wrap;html=1;fillColor=#e1d5e7;strokeColor=#9673a6;strokeWidth=1;shadow=0;fillStyle=auto;opacity=50;" vertex="1" parent="1">
          <mxGeometry x="1830" y="730" width="60" height="60" as="geometry" />
        </mxCell>
        <mxCell id="1oHpsWvgfou1lXLHneRs-109" value="" style="rounded=0;whiteSpace=wrap;html=1;fillColor=#e1d5e7;strokeColor=#9673a6;strokeWidth=1;shadow=0;fillStyle=auto;opacity=50;" vertex="1" parent="1">
          <mxGeometry x="1950" y="747" width="60" height="60" as="geometry" />
        </mxCell>
        <mxCell id="1oHpsWvgfou1lXLHneRs-110" value="" style="rounded=0;whiteSpace=wrap;html=1;fillColor=#e1d5e7;strokeColor=#9673a6;strokeWidth=1;shadow=0;fillStyle=auto;opacity=50;" vertex="1" parent="1">
          <mxGeometry x="1770" y="730" width="60" height="60" as="geometry" />
        </mxCell>
        <mxCell id="1oHpsWvgfou1lXLHneRs-111" value="" style="rounded=0;whiteSpace=wrap;html=1;fillColor=#e1d5e7;strokeColor=#9673a6;strokeWidth=1;shadow=0;fillStyle=auto;opacity=50;" vertex="1" parent="1">
          <mxGeometry x="1710" y="730" width="60" height="60" as="geometry" />
        </mxCell>
        <mxCell id="1oHpsWvgfou1lXLHneRs-112" value="" style="rounded=0;whiteSpace=wrap;html=1;fillColor=#e1d5e7;strokeColor=#9673a6;strokeWidth=1;shadow=0;fillStyle=auto;opacity=50;" vertex="1" parent="1">
          <mxGeometry x="1650" y="730" width="60" height="60" as="geometry" />
        </mxCell>
        <mxCell id="1oHpsWvgfou1lXLHneRs-113" value="" style="rounded=0;whiteSpace=wrap;html=1;fillColor=#e1d5e7;strokeColor=#9673a6;strokeWidth=1;shadow=0;fillStyle=auto;opacity=50;" vertex="1" parent="1">
          <mxGeometry x="1590" y="730" width="60" height="60" as="geometry" />
        </mxCell>
        <mxCell id="1oHpsWvgfou1lXLHneRs-114" value="" style="rounded=0;whiteSpace=wrap;html=1;fillColor=#e1d5e7;strokeColor=#9673a6;strokeWidth=1;shadow=0;fillStyle=auto;opacity=50;" vertex="1" parent="1">
          <mxGeometry x="1530" y="730" width="60" height="60" as="geometry" />
        </mxCell>
        <mxCell id="1oHpsWvgfou1lXLHneRs-115" value="" style="rounded=0;whiteSpace=wrap;html=1;fillColor=#e1d5e7;strokeColor=#9673a6;strokeWidth=1;shadow=0;fillStyle=auto;opacity=50;" vertex="1" parent="1">
          <mxGeometry x="1470" y="730" width="60" height="60" as="geometry" />
        </mxCell>
        <mxCell id="1oHpsWvgfou1lXLHneRs-116" value="" style="rounded=0;whiteSpace=wrap;html=1;fillColor=#e1d5e7;strokeColor=#9673a6;strokeWidth=1;shadow=0;fillStyle=auto;opacity=50;" vertex="1" parent="1">
          <mxGeometry x="1410" y="730" width="60" height="60" as="geometry" />
        </mxCell>
        <mxCell id="1oHpsWvgfou1lXLHneRs-117" value="" style="rounded=0;whiteSpace=wrap;html=1;fillColor=#e1d5e7;strokeColor=#9673a6;strokeWidth=1;shadow=0;fillStyle=auto;opacity=50;" vertex="1" parent="1">
          <mxGeometry x="1350" y="730" width="60" height="60" as="geometry" />
        </mxCell>
        <mxCell id="1oHpsWvgfou1lXLHneRs-118" value="" style="rounded=0;whiteSpace=wrap;html=1;fillColor=#e1d5e7;strokeColor=#9673a6;strokeWidth=1;shadow=0;fillStyle=auto;opacity=50;" vertex="1" parent="1">
          <mxGeometry x="1290" y="730" width="60" height="60" as="geometry" />
        </mxCell>
        <mxCell id="1oHpsWvgfou1lXLHneRs-119" value="" style="rounded=0;whiteSpace=wrap;html=1;fillColor=#e1d5e7;strokeColor=#9673a6;strokeWidth=1;shadow=0;fillStyle=auto;opacity=50;" vertex="1" parent="1">
          <mxGeometry x="1230" y="730" width="60" height="60" as="geometry" />
        </mxCell>
        <mxCell id="1oHpsWvgfou1lXLHneRs-120" value="" style="rounded=0;whiteSpace=wrap;html=1;fillColor=#e1d5e7;strokeColor=#9673a6;strokeWidth=1;shadow=0;fillStyle=auto;opacity=50;" vertex="1" parent="1">
          <mxGeometry x="1170" y="730" width="60" height="60" as="geometry" />
        </mxCell>
        <mxCell id="1oHpsWvgfou1lXLHneRs-121" value="" style="rounded=0;whiteSpace=wrap;html=1;fillColor=#e1d5e7;strokeColor=#9673a6;strokeWidth=1;shadow=0;fillStyle=auto;opacity=50;" vertex="1" parent="1">
          <mxGeometry x="1110" y="730" width="60" height="60" as="geometry" />
        </mxCell>
        <mxCell id="1oHpsWvgfou1lXLHneRs-122" value="" style="rounded=0;whiteSpace=wrap;html=1;fillColor=#e1d5e7;strokeColor=#9673a6;strokeWidth=1;shadow=0;fillStyle=auto;opacity=50;" vertex="1" parent="1">
          <mxGeometry x="1301" y="670" width="60" height="60" as="geometry" />
        </mxCell>
        <mxCell id="1oHpsWvgfou1lXLHneRs-123" value="" style="rounded=0;whiteSpace=wrap;html=1;fillColor=#e1d5e7;strokeColor=#9673a6;strokeWidth=1;shadow=0;fillStyle=auto;opacity=50;" vertex="1" parent="1">
          <mxGeometry x="1241" y="670" width="60" height="60" as="geometry" />
        </mxCell>
        <mxCell id="1oHpsWvgfou1lXLHneRs-124" value="" style="rounded=0;whiteSpace=wrap;html=1;fillColor=#e1d5e7;strokeColor=#9673a6;strokeWidth=1;shadow=0;fillStyle=auto;opacity=50;" vertex="1" parent="1">
          <mxGeometry x="1361" y="670" width="60" height="60" as="geometry" />
        </mxCell>
        <mxCell id="1oHpsWvgfou1lXLHneRs-125" value="" style="rounded=0;whiteSpace=wrap;html=1;fillColor=#e1d5e7;strokeColor=#9673a6;strokeWidth=1;shadow=0;fillStyle=auto;opacity=50;" vertex="1" parent="1">
          <mxGeometry x="1241" y="610" width="60" height="60" as="geometry" />
        </mxCell>
        <mxCell id="1oHpsWvgfou1lXLHneRs-126" value="" style="rounded=0;whiteSpace=wrap;html=1;fillColor=#e1d5e7;strokeColor=#9673a6;strokeWidth=1;shadow=0;fillStyle=auto;opacity=50;" vertex="1" parent="1">
          <mxGeometry x="1301" y="610" width="60" height="60" as="geometry" />
        </mxCell>
        <mxCell id="1oHpsWvgfou1lXLHneRs-127" value="" style="rounded=0;whiteSpace=wrap;html=1;fillColor=#e1d5e7;strokeColor=#9673a6;strokeWidth=1;shadow=0;fillStyle=auto;opacity=50;" vertex="1" parent="1">
          <mxGeometry x="1361" y="610" width="60" height="60" as="geometry" />
        </mxCell>
        <mxCell id="1oHpsWvgfou1lXLHneRs-128" value="" style="rounded=0;whiteSpace=wrap;html=1;fillColor=#e1d5e7;strokeColor=#9673a6;strokeWidth=1;shadow=0;fillStyle=auto;opacity=50;" vertex="1" parent="1">
          <mxGeometry x="1241" y="550" width="60" height="60" as="geometry" />
        </mxCell>
        <mxCell id="1oHpsWvgfou1lXLHneRs-129" value="" style="rounded=0;whiteSpace=wrap;html=1;fillColor=#e1d5e7;strokeColor=#9673a6;strokeWidth=1;shadow=0;fillStyle=auto;opacity=50;" vertex="1" parent="1">
          <mxGeometry x="1301" y="550" width="60" height="60" as="geometry" />
        </mxCell>
        <mxCell id="1oHpsWvgfou1lXLHneRs-130" value="" style="rounded=0;whiteSpace=wrap;html=1;fillColor=#e1d5e7;strokeColor=#9673a6;strokeWidth=1;shadow=0;fillStyle=auto;opacity=50;" vertex="1" parent="1">
          <mxGeometry x="1361" y="550" width="60" height="60" as="geometry" />
        </mxCell>
        <mxCell id="1oHpsWvgfou1lXLHneRs-131" value="" style="rounded=0;whiteSpace=wrap;html=1;fillColor=#e1d5e7;strokeColor=#9673a6;strokeWidth=1;shadow=0;fillStyle=auto;opacity=50;" vertex="1" parent="1">
          <mxGeometry x="1241" y="490" width="60" height="60" as="geometry" />
        </mxCell>
        <mxCell id="1oHpsWvgfou1lXLHneRs-132" value="" style="rounded=0;whiteSpace=wrap;html=1;fillColor=#e1d5e7;strokeColor=#9673a6;strokeWidth=1;shadow=0;fillStyle=auto;opacity=50;" vertex="1" parent="1">
          <mxGeometry x="1301" y="490" width="60" height="60" as="geometry" />
        </mxCell>
        <mxCell id="1oHpsWvgfou1lXLHneRs-133" value="" style="rounded=0;whiteSpace=wrap;html=1;fillColor=#e1d5e7;strokeColor=#9673a6;strokeWidth=1;shadow=0;fillStyle=auto;opacity=50;" vertex="1" parent="1">
          <mxGeometry x="1361" y="490" width="60" height="60" as="geometry" />
        </mxCell>
        <mxCell id="1oHpsWvgfou1lXLHneRs-134" value="" style="rounded=0;whiteSpace=wrap;html=1;fillColor=#e1d5e7;strokeColor=#9673a6;strokeWidth=1;shadow=0;fillStyle=auto;opacity=50;" vertex="1" parent="1">
          <mxGeometry x="1241" y="430" width="60" height="60" as="geometry" />
        </mxCell>
        <mxCell id="1oHpsWvgfou1lXLHneRs-135" value="" style="rounded=0;whiteSpace=wrap;html=1;fillColor=#e1d5e7;strokeColor=#9673a6;strokeWidth=1;shadow=0;fillStyle=auto;opacity=50;" vertex="1" parent="1">
          <mxGeometry x="1301" y="430" width="60" height="60" as="geometry" />
        </mxCell>
        <mxCell id="1oHpsWvgfou1lXLHneRs-136" value="" style="rounded=0;whiteSpace=wrap;html=1;fillColor=#e1d5e7;strokeColor=#9673a6;strokeWidth=1;shadow=0;fillStyle=auto;opacity=50;" vertex="1" parent="1">
          <mxGeometry x="1361" y="430" width="60" height="60" as="geometry" />
        </mxCell>
        <mxCell id="1oHpsWvgfou1lXLHneRs-137" value="" style="rounded=0;whiteSpace=wrap;html=1;fillColor=#e1d5e7;strokeColor=#9673a6;strokeWidth=1;shadow=0;fillStyle=auto;opacity=50;" vertex="1" parent="1">
          <mxGeometry x="1241" y="370" width="60" height="60" as="geometry" />
        </mxCell>
        <mxCell id="1oHpsWvgfou1lXLHneRs-138" value="" style="rounded=0;whiteSpace=wrap;html=1;fillColor=#e1d5e7;strokeColor=#9673a6;strokeWidth=1;shadow=0;fillStyle=auto;opacity=50;" vertex="1" parent="1">
          <mxGeometry x="1301" y="370" width="60" height="60" as="geometry" />
        </mxCell>
        <mxCell id="1oHpsWvgfou1lXLHneRs-139" value="" style="rounded=0;whiteSpace=wrap;html=1;fillColor=#e1d5e7;strokeColor=#9673a6;strokeWidth=1;shadow=0;fillStyle=auto;opacity=50;" vertex="1" parent="1">
          <mxGeometry x="1361" y="370" width="60" height="60" as="geometry" />
        </mxCell>
        <mxCell id="1oHpsWvgfou1lXLHneRs-140" value="" style="rounded=0;whiteSpace=wrap;html=1;fillColor=#e1d5e7;strokeColor=#9673a6;strokeWidth=1;shadow=0;fillStyle=auto;opacity=50;" vertex="1" parent="1">
          <mxGeometry x="1241" y="310" width="60" height="60" as="geometry" />
        </mxCell>
        <mxCell id="1oHpsWvgfou1lXLHneRs-141" value="" style="rounded=0;whiteSpace=wrap;html=1;fillColor=#e1d5e7;strokeColor=#9673a6;strokeWidth=1;shadow=0;fillStyle=auto;opacity=50;" vertex="1" parent="1">
          <mxGeometry x="1301" y="310" width="60" height="60" as="geometry" />
        </mxCell>
        <mxCell id="1oHpsWvgfou1lXLHneRs-142" value="" style="rounded=0;whiteSpace=wrap;html=1;fillColor=#e1d5e7;strokeColor=#9673a6;strokeWidth=1;shadow=0;fillStyle=auto;opacity=50;" vertex="1" parent="1">
          <mxGeometry x="1361" y="310" width="60" height="60" as="geometry" />
        </mxCell>
        <mxCell id="1oHpsWvgfou1lXLHneRs-143" value="" style="rounded=0;whiteSpace=wrap;html=1;fillColor=#e1d5e7;strokeColor=#9673a6;strokeWidth=1;shadow=0;fillStyle=auto;opacity=50;" vertex="1" parent="1">
          <mxGeometry x="1241" y="250" width="60" height="60" as="geometry" />
        </mxCell>
        <mxCell id="1oHpsWvgfou1lXLHneRs-144" value="" style="rounded=0;whiteSpace=wrap;html=1;fillColor=#e1d5e7;strokeColor=#9673a6;strokeWidth=1;shadow=0;fillStyle=auto;opacity=50;" vertex="1" parent="1">
          <mxGeometry x="1301" y="250" width="60" height="60" as="geometry" />
        </mxCell>
        <mxCell id="1oHpsWvgfou1lXLHneRs-145" value="" style="rounded=0;whiteSpace=wrap;html=1;fillColor=#e1d5e7;strokeColor=#9673a6;strokeWidth=1;shadow=0;fillStyle=auto;opacity=50;" vertex="1" parent="1">
          <mxGeometry x="1361" y="250" width="60" height="60" as="geometry" />
        </mxCell>
        <mxCell id="1oHpsWvgfou1lXLHneRs-146" value="" style="rounded=0;whiteSpace=wrap;html=1;fillColor=#e1d5e7;strokeColor=#9673a6;strokeWidth=1;shadow=0;fillStyle=auto;opacity=50;" vertex="1" parent="1">
          <mxGeometry x="1241" y="190" width="60" height="60" as="geometry" />
        </mxCell>
        <mxCell id="1oHpsWvgfou1lXLHneRs-147" value="" style="rounded=0;whiteSpace=wrap;html=1;fillColor=#e1d5e7;strokeColor=#9673a6;strokeWidth=1;shadow=0;fillStyle=auto;opacity=50;" vertex="1" parent="1">
          <mxGeometry x="1301" y="190" width="60" height="60" as="geometry" />
        </mxCell>
        <mxCell id="1oHpsWvgfou1lXLHneRs-148" value="" style="rounded=0;whiteSpace=wrap;html=1;fillColor=#e1d5e7;strokeColor=#9673a6;strokeWidth=1;shadow=0;fillStyle=auto;opacity=50;" vertex="1" parent="1">
          <mxGeometry x="1361" y="190" width="60" height="60" as="geometry" />
        </mxCell>
        <mxCell id="1oHpsWvgfou1lXLHneRs-149" value="" style="rounded=0;whiteSpace=wrap;html=1;fillColor=#e1d5e7;strokeColor=#9673a6;strokeWidth=1;shadow=0;fillStyle=auto;opacity=50;" vertex="1" parent="1">
          <mxGeometry x="1241" y="130" width="60" height="60" as="geometry" />
        </mxCell>
        <mxCell id="1oHpsWvgfou1lXLHneRs-150" value="" style="rounded=0;whiteSpace=wrap;html=1;fillColor=#e1d5e7;strokeColor=#9673a6;strokeWidth=1;shadow=0;fillStyle=auto;opacity=50;" vertex="1" parent="1">
          <mxGeometry x="1301" y="130" width="60" height="60" as="geometry" />
        </mxCell>
        <mxCell id="1oHpsWvgfou1lXLHneRs-151" value="" style="rounded=0;whiteSpace=wrap;html=1;fillColor=#e1d5e7;strokeColor=#9673a6;strokeWidth=1;shadow=0;fillStyle=auto;opacity=50;" vertex="1" parent="1">
          <mxGeometry x="1361" y="130" width="60" height="60" as="geometry" />
        </mxCell>
        <mxCell id="1oHpsWvgfou1lXLHneRs-152" value="" style="rounded=0;whiteSpace=wrap;html=1;fillColor=#e1d5e7;strokeColor=#9673a6;strokeWidth=1;shadow=0;fillStyle=auto;opacity=50;" vertex="1" parent="1">
          <mxGeometry x="2010" y="747" width="60" height="60" as="geometry" />
        </mxCell>
        <mxCell id="1oHpsWvgfou1lXLHneRs-154" value="27,5 x 100" style="rounded=0;whiteSpace=wrap;html=1;" vertex="1" parent="1">
          <mxGeometry x="2270" y="763" width="100" height="27" as="geometry" />
        </mxCell>
        <mxCell id="1oHpsWvgfou1lXLHneRs-155" value="10 x 100" style="rounded=0;whiteSpace=wrap;html=1;" vertex="1" parent="1">
          <mxGeometry x="2270" y="790" width="100" height="10" as="geometry" />
        </mxCell>
        <mxCell id="1oHpsWvgfou1lXLHneRs-156" value="16,5 x 100" style="rounded=0;whiteSpace=wrap;html=1;" vertex="1" parent="1">
          <mxGeometry x="2270" y="747" width="100" height="16" as="geometry" />
        </mxCell>
        <mxCell id="1oHpsWvgfou1lXLHneRs-157" value="27,5 x 100" style="rounded=0;whiteSpace=wrap;html=1;" vertex="1" parent="1">
          <mxGeometry x="2270" y="720" width="100" height="27" as="geometry" />
        </mxCell>
        <mxCell id="1oHpsWvgfou1lXLHneRs-158" value="16,5 x 100" style="rounded=0;whiteSpace=wrap;html=1;" vertex="1" parent="1">
          <mxGeometry x="2270" y="704" width="100" height="16" as="geometry" />
        </mxCell>
        <mxCell id="1oHpsWvgfou1lXLHneRs-160" value="27,5 x 100" style="rounded=0;whiteSpace=wrap;html=1;" vertex="1" parent="1">
          <mxGeometry x="2270" y="677" width="100" height="27" as="geometry" />
        </mxCell>
        <mxCell id="1oHpsWvgfou1lXLHneRs-161" value="16,5 x 100" style="rounded=0;whiteSpace=wrap;html=1;" vertex="1" parent="1">
          <mxGeometry x="2270" y="661" width="100" height="16" as="geometry" />
        </mxCell>
        <mxCell id="1oHpsWvgfou1lXLHneRs-162" value="27,5 x 100" style="rounded=0;whiteSpace=wrap;html=1;" vertex="1" parent="1">
          <mxGeometry x="2270" y="634" width="100" height="27" as="geometry" />
        </mxCell>
        <mxCell id="1oHpsWvgfou1lXLHneRs-163" value="16,5 x 100" style="rounded=0;whiteSpace=wrap;html=1;" vertex="1" parent="1">
          <mxGeometry x="2270" y="618" width="100" height="16" as="geometry" />
        </mxCell>
        <mxCell id="1oHpsWvgfou1lXLHneRs-164" value="27,5 cm" style="text;html=1;strokeColor=none;fillColor=none;align=center;verticalAlign=middle;whiteSpace=wrap;rounded=0;" vertex="1" parent="1">
          <mxGeometry x="2520" y="637.5" width="60" height="20" as="geometry" />
        </mxCell>
        <mxCell id="1oHpsWvgfou1lXLHneRs-165" value="27,5 cm" style="text;html=1;strokeColor=none;fillColor=none;align=center;verticalAlign=middle;whiteSpace=wrap;rounded=0;" vertex="1" parent="1">
          <mxGeometry x="2561" y="670" width="60" height="20" as="geometry" />
        </mxCell>
        <mxCell id="1oHpsWvgfou1lXLHneRs-166" value="" style="pointerEvents=1;verticalLabelPosition=bottom;shadow=0;dashed=0;align=center;html=1;verticalAlign=top;shape=mxgraph.electrical.waveforms.step_2;" vertex="1" parent="1">
          <mxGeometry x="2601" y="720" width="80" height="30" as="geometry" />
        </mxCell>
        <mxCell id="1oHpsWvgfou1lXLHneRs-167" value="27,5 cm" style="text;html=1;strokeColor=none;fillColor=none;align=center;verticalAlign=middle;whiteSpace=wrap;rounded=0;" vertex="1" parent="1">
          <mxGeometry x="2601" y="699" width="60" height="20" as="geometry" />
        </mxCell>
        <mxCell id="1oHpsWvgfou1lXLHneRs-168" value="16,5 cm" style="text;html=1;strokeColor=none;fillColor=none;align=center;verticalAlign=middle;whiteSpace=wrap;rounded=0;" vertex="1" parent="1">
          <mxGeometry x="2460" y="630" width="60" height="20" as="geometry" />
        </mxCell>
        <mxCell id="1oHpsWvgfou1lXLHneRs-169" value="16,5 cm" style="text;html=1;strokeColor=none;fillColor=none;align=center;verticalAlign=middle;whiteSpace=wrap;rounded=0;" vertex="1" parent="1">
          <mxGeometry x="2501" y="660" width="60" height="20" as="geometry" />
        </mxCell>
        <mxCell id="1oHpsWvgfou1lXLHneRs-170" value="16,5 cm" style="text;html=1;strokeColor=none;fillColor=none;align=center;verticalAlign=middle;whiteSpace=wrap;rounded=0;" vertex="1" parent="1">
          <mxGeometry x="2541" y="690" width="60" height="20" as="geometry" />
        </mxCell>
        <mxCell id="1oHpsWvgfou1lXLHneRs-171" value="10 cm" style="text;html=1;strokeColor=none;fillColor=none;align=center;verticalAlign=middle;whiteSpace=wrap;rounded=0;" vertex="1" parent="1">
          <mxGeometry x="2581" y="719" width="60" height="20" as="geometry" />
        </mxCell>
        <mxCell id="1oHpsWvgfou1lXLHneRs-172" value="" style="rounded=0;whiteSpace=wrap;html=1;fillColor=#e1d5e7;strokeColor=#9673a6;strokeWidth=1;shadow=0;fillStyle=auto;opacity=50;" vertex="1" parent="1">
          <mxGeometry x="2270" y="739" width="60" height="60" as="geometry" />
        </mxCell>
        <mxCell id="1oHpsWvgfou1lXLHneRs-173" value="" style="rounded=0;whiteSpace=wrap;html=1;fillColor=#e1d5e7;strokeColor=#9673a6;strokeWidth=1;shadow=0;fillStyle=auto;opacity=50;" vertex="1" parent="1">
          <mxGeometry x="2330" y="739" width="60" height="60" as="geometry" />
        </mxCell>
        <mxCell id="1oHpsWvgfou1lXLHneRs-174" value="" style="rounded=0;whiteSpace=wrap;html=1;fillColor=#e1d5e7;strokeColor=#9673a6;strokeWidth=1;shadow=0;fillStyle=auto;opacity=50;" vertex="1" parent="1">
          <mxGeometry x="2270" y="679" width="60" height="60" as="geometry" />
        </mxCell>
        <mxCell id="1oHpsWvgfou1lXLHneRs-175" value="" style="rounded=0;whiteSpace=wrap;html=1;fillColor=#e1d5e7;strokeColor=#9673a6;strokeWidth=1;shadow=0;fillStyle=auto;opacity=50;" vertex="1" parent="1">
          <mxGeometry x="2330" y="679" width="60" height="60" as="geometry" />
        </mxCell>
        <mxCell id="1oHpsWvgfou1lXLHneRs-176" value="" style="rounded=0;whiteSpace=wrap;html=1;fillColor=#e1d5e7;strokeColor=#9673a6;strokeWidth=1;shadow=0;fillStyle=auto;opacity=50;" vertex="1" parent="1">
          <mxGeometry x="2270" y="619" width="60" height="60" as="geometry" />
        </mxCell>
        <mxCell id="1oHpsWvgfou1lXLHneRs-177" value="" style="rounded=0;whiteSpace=wrap;html=1;fillColor=#e1d5e7;strokeColor=#9673a6;strokeWidth=1;shadow=0;fillStyle=auto;opacity=50;" vertex="1" parent="1">
          <mxGeometry x="2330" y="619" width="60" height="60" as="geometry" />
        </mxCell>
      </root>
    </mxGraphModel>
  </diagram>
</mxfile>
